<svg width="21" height="21" viewBox="0 0 21 21" fill="none" xmlns="http://www.w3.org/2000/svg">
<path d="M9.23898 16.7998L4.3476 11.8623L14.7101 1.40231C14.7101 1.40231 16.5476 2.45247 17.5543 3.46871C18.5611 4.48496 19.6015 6.33974 19.6015 6.33974L9.23898 16.7998Z" stroke="black" stroke-linejoin="round"/>
<path d="M1.965 18.4013C1.91899 18.5746 1.96809 18.7596 2.0938 18.8865C2.21952 19.0134 2.40276 19.063 2.5745 19.0165L8.36106 17.4514C8.5328 17.405 8.66694 17.2695 8.71296 17.0962C8.75897 16.9228 8.70988 16.7379 8.58416 16.611L4.3481 12.335C4.22238 12.2081 4.03914 12.1586 3.8674 12.205C3.69567 12.2515 3.56152 12.3869 3.51551 12.5602L1.965 18.4013Z" stroke="black" stroke-linejoin="round"/>
</svg>
